<svg width="199" height="115" viewBox="0 0 199 115" fill="none" xmlns="http://www.w3.org/2000/svg">
<path d="M1.19531 81.7812V66.8979H4.54253V72.8052H7.09279L11.0776 66.8979H14.8233L9.72274 74.1861L15.0624 81.8579H11.3167L7.01309 75.7205H4.62222V81.8579H1.19531V81.7812Z" fill="#343434"/>
<path d="M16.3374 81.7812V71.5777H19.4455V74.7999H21.9161C24.7054 74.7999 26.2197 76.3342 26.2197 78.3289C26.2197 80.3236 24.7054 81.8579 21.9161 81.8579H16.3374V81.7812ZM19.4455 79.7098H21.1988C22.3943 79.7098 23.1115 79.1728 23.1115 78.3289C23.1115 77.485 22.474 76.948 21.1988 76.948H19.4455V79.7098ZM27.973 81.7812V71.5777H31.0811V81.8579H27.973V81.7812Z" fill="#343434"/>
<path d="M40.4058 71.2709C43.8327 71.2709 45.6657 73.8793 45.6657 76.7178C45.6657 79.4797 43.8327 82.1648 40.4058 82.1648C38.7321 82.1648 37.5367 81.4743 36.8991 80.7839V86.5377H33.791V71.5777H36.5804V73.0354C37.1382 72.1915 38.4134 71.2709 40.4058 71.2709ZM39.6088 73.8025C38.254 73.8025 37.2179 74.5697 36.8194 75.4903V77.9453C37.2179 78.8659 38.254 79.6331 39.6088 79.6331C41.3621 79.6331 42.3981 78.3289 42.3981 76.7178C42.3981 75.1067 41.3621 73.8025 39.6088 73.8025Z" fill="#343434"/>
<path d="M47.6577 81.7812V71.5777H55.7867V74.1094H50.6861V81.8579H47.6577V81.7812Z" fill="#343434"/>
<path d="M57.4604 81.7812V71.5777H60.5686V74.7999H63.0391C65.8285 74.7999 67.3427 76.3342 67.3427 78.3289C67.3427 80.3236 65.8285 81.8579 63.0391 81.8579H57.4604V81.7812ZM60.5686 79.7098H62.3219C63.5173 79.7098 64.2346 79.1728 64.2346 78.3289C64.2346 77.485 63.597 76.948 62.3219 76.948H60.5686V79.7098ZM69.1757 81.7812V71.5777H72.2838V81.8579H69.1757V81.7812Z" fill="#343434"/>
<path d="M78.4204 82.0881C76.7468 82.0881 75.3123 81.7812 74.356 81.2442V78.8659C75.1529 79.2495 76.7468 79.7098 78.022 79.7098C79.4565 79.7098 80.5722 79.403 80.5722 78.5591C80.5722 77.6384 79.5362 77.5617 78.5001 77.5617H76.5077V75.5671H78.5001C79.5362 75.5671 80.3331 75.3369 80.3331 74.6464C80.3331 73.956 79.6159 73.5724 78.261 73.5724C76.9859 73.5724 75.4717 73.956 74.595 74.4163V72.1148C75.6311 71.5777 77.1453 71.2709 78.6595 71.2709C82.4052 71.2709 83.521 72.8052 83.521 74.3396C83.521 75.5671 82.724 76.3342 81.688 76.5644C82.9631 76.948 83.76 77.7919 83.76 79.0194C83.6803 80.5537 82.0864 82.0881 78.4204 82.0881Z" fill="#343434"/>
<path d="M102.648 66.8979V69.8132H97.8663V81.8579H94.519V69.7365H89.7373V66.8212H102.648V66.8979Z" fill="#343434"/>
<path d="M112.371 79.8633C112.53 79.8633 112.769 79.8633 112.929 79.7865V81.7045C112.45 81.8579 111.813 82.0114 111.175 82.0114C110.06 82.0114 109.263 81.6278 108.784 80.8606C107.748 81.6278 106.473 82.0881 104.959 82.0881C102.967 82.0881 101.213 81.014 101.213 78.9427C101.213 76.3342 103.764 75.4903 105.915 75.4903C106.792 75.4903 107.669 75.5671 108.466 75.7972V75.4136C108.466 74.4163 107.589 73.6491 105.915 73.6491C104.401 73.6491 103.126 74.0327 102.09 74.4163V71.8846C102.967 71.5777 104.64 71.1942 106.234 71.1942C109.422 71.1942 111.494 72.4216 111.494 75.7972V79.0961C111.654 79.7098 111.972 79.8633 112.371 79.8633ZM104.401 78.7125C104.401 79.4797 105.118 79.94 106.075 79.94C106.951 79.94 107.748 79.7098 108.466 79.0961V77.485C107.988 77.4083 107.27 77.2549 106.633 77.2549C105.517 77.3316 104.401 77.7152 104.401 78.7125Z" fill="#343434"/>
<path d="M114.603 81.7812V71.5777H117.711V79.3262H120.819V71.5777H123.927V79.3262H127.035V71.5777H130.143V81.8579H114.603V81.7812Z" fill="#343434"/>
<path d="M138.113 81.7812V66.8979H149.031V69.8132H141.46V81.8579H138.113V81.7812Z" fill="#343434"/>
<path d="M155.008 71.2709C158.435 71.2709 160.268 73.8793 160.268 76.7178C160.268 79.4797 158.435 82.1648 155.008 82.1648C153.335 82.1648 152.139 81.4743 151.502 80.7839V86.5377H148.394V71.5777H151.183V73.0354C151.82 72.1915 153.016 71.2709 155.008 71.2709ZM154.291 73.8025C152.936 73.8025 151.9 74.5697 151.502 75.4903V77.9453C151.9 78.8659 152.936 79.6331 154.291 79.6331C156.044 79.6331 157.08 78.3289 157.08 76.7178C157.08 75.1067 156.044 73.8025 154.291 73.8025Z" fill="#343434"/>
<path d="M169.592 71.5777H172.78L167.998 83.0854C166.803 85.924 165.129 86.8446 163.376 86.8446C162.818 86.8446 162.26 86.7679 161.702 86.6144V84.1595C162.101 84.2362 162.579 84.3129 162.978 84.3129C164.093 84.3129 164.97 83.6224 165.528 82.0881V82.0114L160.427 71.5777H163.695L166.803 78.4823L169.592 71.5777Z" fill="#343434"/>
<path d="M174.374 81.7812V71.5777H184.894V81.8579H181.786V74.0327H177.482V81.7812H174.374Z" fill="#343434"/>
<path d="M187.604 81.7812V71.5777H198.123V81.8579H195.015V74.0327H190.712V81.7812H187.604Z" fill="#343434"/>
<path d="M121.536 17.7985L104.242 1.3042H77.4644V9.81988L86.3903 18.3356V28.4623L103.684 44.9566H112.61V26.5444H121.536V17.7985Z" fill="#343434"/>
<path d="M86.3901 18.3356V9.81989H112.61V18.3356H103.684V48.7925H95.316V18.3356H86.3901Z" fill="white"/>
<path d="M31.4795 107.865H31.9577C32.3561 107.175 32.6749 106.331 32.9937 105.41C33.2328 104.49 33.4719 103.646 33.5516 102.725H36.7394V107.865H37.5364V110.32H36.58V108.709H32.5155V110.32H31.5592V107.865H31.4795ZM34.3485 103.569C34.2688 104.183 34.1094 104.873 33.8704 105.717C33.6313 106.561 33.3125 107.252 32.9937 107.865H35.7034V103.569H34.3485Z" fill="#6C717C"/>
<path d="M43.992 105.717C43.992 106.714 43.7529 107.405 43.2747 107.942C42.7966 108.479 42.0793 108.709 41.1229 108.709C40.1666 108.709 39.4493 108.479 38.9712 107.942C38.493 107.405 38.2539 106.638 38.2539 105.64C38.2539 104.643 38.493 103.876 38.9712 103.416C39.4493 102.879 40.1666 102.648 41.1229 102.648C42.0793 102.648 42.7169 102.879 43.2747 103.416C43.7529 103.953 43.992 104.72 43.992 105.717ZM39.2899 105.717C39.2899 106.484 39.4493 107.021 39.7681 107.405C40.0869 107.789 40.5651 107.942 41.1229 107.942C41.7605 107.942 42.159 107.789 42.4778 107.405C42.7966 107.021 42.9559 106.484 42.9559 105.717C42.9559 104.95 42.7966 104.413 42.4778 104.029C42.159 103.646 41.7605 103.492 41.1229 103.492C40.4854 103.492 40.0869 103.646 39.7681 104.029C39.4493 104.413 39.2899 104.95 39.2899 105.717Z" fill="#6C717C"/>
<path d="M49.4905 106.868C49.4905 108.095 48.6935 108.632 47.0996 108.632H45.2666V102.648H49.0123V103.492H46.223V105.103H46.9402C48.6935 105.18 49.4905 105.717 49.4905 106.868ZM46.3823 107.865H47.0996C47.5778 107.865 47.9763 107.789 48.1356 107.635C48.3747 107.482 48.4544 107.252 48.4544 106.868C48.4544 106.561 48.3747 106.331 48.1356 106.177C47.8966 106.024 47.4981 105.947 46.9402 105.947H46.3026V107.865H46.3823Z" fill="#6C717C"/>
<path d="M54.8301 106.868C54.8301 107.482 54.6707 107.865 54.2722 108.172C53.8738 108.479 53.3159 108.632 52.5189 108.632H50.7656V102.648H51.8017V105.027H52.5189C53.3159 105.027 53.8738 105.18 54.2722 105.487C54.6707 105.794 54.8301 106.331 54.8301 106.868ZM51.722 107.865H52.4392C52.9174 107.865 53.2362 107.789 53.4753 107.635C53.7144 107.482 53.7941 107.252 53.7941 106.868C53.7941 106.561 53.7144 106.331 53.4753 106.177C53.2362 106.024 52.9174 105.947 52.3595 105.947H51.722V107.865ZM56.7428 108.709H55.7068V102.725H56.7428V108.709Z" fill="#6C717C"/>
<path d="M62.8794 108.709H61.8434V106.331C61.4449 106.484 61.1261 106.561 60.8073 106.638C60.4885 106.714 60.2494 106.714 59.9307 106.714C59.3728 106.714 58.8946 106.561 58.5758 106.331C58.257 106.101 58.0977 105.717 58.0977 105.18V102.802H59.1337V105.027C59.1337 105.334 59.2134 105.564 59.3728 105.717C59.5322 105.871 59.7713 105.947 60.1697 105.947C60.4088 105.947 60.7276 105.947 60.9667 105.871C61.2058 105.794 61.5246 105.717 61.923 105.64V102.879H62.9591V108.709H62.8794Z" fill="#6C717C"/>
<path d="M68.2987 108.709L67.6611 107.021H65.2703L64.6327 108.709H63.5967L65.9078 102.725H67.0236L69.3347 108.709H68.2987ZM67.4221 106.177L66.8642 104.566C66.7845 104.49 66.7845 104.26 66.7048 104.029C66.6251 103.799 66.5454 103.646 66.5454 103.492C66.4657 103.799 66.386 104.183 66.2266 104.566L65.6688 106.101H67.4221V106.177Z" fill="#6C717C"/>
<path d="M76.1093 102.725V103.569H73.4794V108.709H72.4434V102.725H76.1093Z" fill="#6C717C"/>
<path d="M81.2096 104.566C81.2096 105.18 80.9705 105.64 80.572 106.024C80.1736 106.331 79.536 106.484 78.739 106.484H78.1015V108.709H77.0654V102.725H78.8984C79.6954 102.725 80.2533 102.879 80.6517 103.186C81.0502 103.492 81.2096 103.953 81.2096 104.566ZM78.1812 105.64H78.739C79.2969 105.64 79.6157 105.564 79.8548 105.41C80.0939 105.257 80.2533 104.95 80.2533 104.566C80.2533 104.26 80.1736 103.953 79.9345 103.799C79.6954 103.646 79.3766 103.569 78.8984 103.569H78.1812V105.64Z" fill="#6C717C"/>
<path d="M86.31 108.709L85.6724 107.021H83.2815L82.644 108.709H81.6079L83.9191 102.725H85.0348L87.346 108.709H86.31ZM85.4333 106.177L84.8754 104.566C84.7957 104.49 84.7957 104.26 84.716 104.029C84.6364 103.799 84.5567 103.646 84.5567 103.492C84.477 103.799 84.3973 104.183 84.2379 104.566L83.68 106.101H85.4333V106.177Z" fill="#6C717C"/>
<path d="M93.0842 108.709H92.0482V106.024H89.1791V108.709H88.1431V102.725H89.1791V105.18H92.0482V102.725H93.0842V108.709Z" fill="#6C717C"/>
<path d="M94.6782 102.725H95.6346V105.794C95.6346 106.101 95.6346 106.408 95.6346 106.791C95.6346 107.098 95.6346 107.328 95.6346 107.482L98.8224 102.725H100.018V108.709H99.0615V105.64C99.0615 105.18 99.0615 104.566 99.1412 103.953L95.9534 108.709H94.7579V102.725H94.6782Z" fill="#6C717C"/>
<path d="M103.683 108.709H102.647V103.569H100.814V102.725H105.437V103.569H103.604V108.709H103.683Z" fill="#6C717C"/>
<path d="M110.298 108.709L109.661 107.021H107.27L106.632 108.709H105.596L107.907 102.725H109.023L111.334 108.709H110.298ZM109.422 106.177L108.864 104.566C108.784 104.49 108.784 104.26 108.704 104.029C108.625 103.799 108.545 103.646 108.545 103.492C108.465 103.799 108.386 104.183 108.226 104.566L107.668 106.101H109.422V106.177Z" fill="#6C717C"/>
<path d="M114.442 102.725H115.399V105.794C115.399 106.101 115.399 106.408 115.399 106.791C115.399 107.098 115.399 107.328 115.399 107.482L118.587 102.725H119.782V108.709H118.746V105.64C118.746 105.18 118.746 104.566 118.826 103.953L115.638 108.709H114.442V102.725Z" fill="#6C717C"/>
<path d="M126.158 108.709L124.404 103.723C124.484 104.49 124.484 105.18 124.484 105.794V108.709H123.528V102.725H124.962L126.716 107.482L128.469 102.725H129.903V108.709H128.947V105.794C128.947 105.487 128.947 105.103 128.947 104.643C128.947 104.183 128.947 103.876 129.027 103.799L127.194 108.786H126.158V108.709Z" fill="#6C717C"/>
<path d="M135.562 104.566C135.562 105.18 135.323 105.64 134.924 106.024C134.526 106.331 133.888 106.484 133.091 106.484H132.454V108.709H131.498V102.725H133.251C134.048 102.725 134.606 102.879 135.004 103.186C135.403 103.492 135.562 103.953 135.562 104.566ZM132.534 105.64H133.091C133.649 105.64 133.968 105.564 134.207 105.41C134.446 105.257 134.606 104.95 134.606 104.566C134.606 104.26 134.526 103.953 134.287 103.799C134.048 103.646 133.729 103.569 133.251 103.569H132.534V105.64Z" fill="#6C717C"/>
<path d="M140.662 108.709L140.025 107.021H137.634L136.996 108.709H135.96L138.272 102.725H139.387L141.699 108.709H140.662ZM139.786 106.177L139.228 104.566C139.148 104.49 139.148 104.26 139.069 104.029C138.989 103.799 138.909 103.646 138.909 103.492C138.829 103.799 138.75 104.183 138.59 104.566L138.033 106.101H139.786V106.177Z" fill="#6C717C"/>
<path d="M145.205 108.709L143.452 103.723C143.532 104.49 143.532 105.18 143.532 105.794V108.709H142.575V102.725H144.01L145.763 107.482L147.516 102.725H148.951V108.709H147.995V105.794C147.995 105.487 147.995 105.103 147.995 104.643C147.995 104.183 147.995 103.876 148.074 103.799L146.241 108.786H145.205V108.709Z" fill="#6C717C"/>
<path d="M155.964 105.717C155.964 106.714 155.725 107.405 155.247 107.942C154.769 108.479 154.051 108.709 153.095 108.709C152.139 108.709 151.422 108.479 150.943 107.942C150.465 107.405 150.226 106.638 150.226 105.64C150.226 104.643 150.465 103.876 150.943 103.416C151.422 102.879 152.139 102.648 153.095 102.648C154.051 102.648 154.689 102.879 155.247 103.416C155.805 103.953 155.964 104.72 155.964 105.717ZM151.262 105.717C151.262 106.484 151.422 107.021 151.74 107.405C152.059 107.789 152.537 107.942 153.095 107.942C153.733 107.942 154.131 107.789 154.45 107.405C154.769 107.021 154.928 106.484 154.928 105.717C154.928 104.95 154.769 104.413 154.45 104.029C154.131 103.646 153.733 103.492 153.095 103.492C152.458 103.492 152.059 103.646 151.74 104.029C151.422 104.413 151.262 104.95 151.262 105.717Z" fill="#6C717C"/>
<path d="M161.383 104.566C161.383 105.18 161.144 105.64 160.746 106.024C160.347 106.331 159.71 106.484 158.913 106.484H158.275V108.709H157.239V102.725H158.993C159.79 102.725 160.347 102.879 160.746 103.186C161.224 103.492 161.383 103.953 161.383 104.566ZM158.355 105.64H158.913C159.471 105.64 159.79 105.564 160.029 105.41C160.268 105.257 160.427 104.95 160.427 104.566C160.427 104.26 160.347 103.953 160.108 103.799C159.869 103.646 159.55 103.569 159.072 103.569H158.355V105.64Z" fill="#6C717C"/>
<path d="M166.484 108.709L165.846 107.021H163.455L162.818 108.709H161.782L164.093 102.725H165.209L167.52 108.709H166.484ZM165.607 106.177L165.049 104.566C164.97 104.49 164.97 104.26 164.89 104.029C164.81 103.799 164.73 103.646 164.73 103.492C164.651 103.799 164.571 104.183 164.412 104.566L163.854 106.101H165.607V106.177Z" fill="#6C717C"/>
</svg>
