<svg width="16" height="18" viewBox="0 0 16 18" fill="none" xmlns="http://www.w3.org/2000/svg">
<path d="M10.0826 13.345C11.5897 10.8453 13.4946 7.33115 13.4946 5.52482C13.4946 2.47778 11.0168 0 7.96975 0C4.92271 0 2.44493 2.47778 2.44493 5.52482C2.44493 7.33115 4.34979 10.8453 5.85689 13.345C4.06881 13.48 0 13.9653 0 15.5746C0 17.1583 4.13084 17.8809 7.9734 17.8809C11.8123 17.8809 15.9468 17.1583 15.9468 15.5746C15.9432 13.9653 11.8707 13.48 10.0826 13.345ZM3.20761 5.52482C3.20761 2.89743 5.34601 0.759024 7.96975 0.759024C10.5971 0.759024 12.7355 2.89743 12.7355 5.52482C12.7355 7.82014 9.0791 13.5785 7.96975 15.2717C6.86041 13.5785 3.20761 7.82014 3.20761 5.52482ZM7.96975 17.1182C3.30248 17.1182 0.759024 16.0964 0.759024 15.5709C0.759024 15.1659 2.43763 14.2937 6.30574 14.0711C7.03192 15.2425 7.58294 16.0709 7.65593 16.1694C7.75445 16.3008 8.04274 16.4577 8.28723 16.1694C8.36386 16.0782 8.91123 15.2425 9.63742 14.0711C13.5055 14.2937 15.1841 15.1622 15.1841 15.5709C15.1805 16.1001 12.637 17.1182 7.96975 17.1182Z" fill="white"/>
<path d="M10.3745 5.52467C10.3745 4.19637 9.29803 3.11987 7.96973 3.11987C6.64144 3.11987 5.56494 4.19637 5.56494 5.52467C5.56494 6.85296 6.64144 7.92946 7.96973 7.92946C9.29803 7.92946 10.3745 6.85296 10.3745 5.52467ZM6.32396 5.52467C6.32396 4.61603 7.06109 3.8789 7.96973 3.8789C8.87837 3.8789 9.6155 4.61603 9.6155 5.52467C9.6155 6.4333 8.87837 7.17043 7.96973 7.17043C7.06109 7.17043 6.32396 6.4333 6.32396 5.52467Z" fill="white"/>
</svg>
