<svg width="18" height="19" viewBox="0 0 18 19" fill="none" xmlns="http://www.w3.org/2000/svg">
<path d="M13.1275 0H4.87243C2.18573 0 0 2.30716 0 5.14312V13.857C0 16.6928 2.18573 19 4.87243 19H13.1277C15.8142 19 18 16.6928 18 13.857V5.14312C18 2.30716 15.8142 0 13.1275 0V0ZM16.9447 13.857C16.9447 16.0786 15.2324 17.8861 13.1275 17.8861H4.87243C2.76759 17.8861 1.05523 16.0786 1.05523 13.857V5.14312C1.05523 2.92134 2.76759 1.11386 4.87243 1.11386H13.1277C15.2324 1.11386 16.9447 2.92134 16.9447 5.14312V13.857Z" fill="white"/>
<path d="M9.0001 4.30493C6.2862 4.30493 4.07837 6.63543 4.07837 9.50009C4.07837 12.3648 6.2862 14.6952 9.0001 14.6952C11.714 14.6952 13.9218 12.3648 13.9218 9.50009C13.9218 6.63543 11.714 4.30493 9.0001 4.30493ZM9.0001 13.5814C6.8682 13.5814 5.1336 11.7506 5.1336 9.50009C5.1336 7.24976 6.8682 5.41879 9.0001 5.41879C11.1321 5.41879 12.8666 7.24976 12.8666 9.50009C12.8666 11.7506 11.1321 13.5814 9.0001 13.5814Z" fill="white"/>
<path d="M14.0395 2.45972C13.2375 2.45972 12.5852 3.14841 12.5852 3.99482C12.5852 4.84138 13.2375 5.53008 14.0395 5.53008C14.8415 5.53008 15.494 4.84138 15.494 3.99482C15.494 3.14827 14.8415 2.45972 14.0395 2.45972ZM14.0395 4.41607C13.8195 4.41607 13.6404 4.22705 13.6404 3.99482C13.6404 3.76246 13.8195 3.57358 14.0395 3.57358C14.2597 3.57358 14.4387 3.76246 14.4387 3.99482C14.4387 4.22705 14.2597 4.41607 14.0395 4.41607Z" fill="white"/>
</svg>
