<svg width="115" height="66" viewBox="0 0 115 66" fill="none" xmlns="http://www.w3.org/2000/svg">
<path d="M0.710693 49.0329V40.0635H2.64934V43.6271H4.11094L6.39469 40.0635H8.55664L5.62329 44.4324L8.71905 49.0329H6.57739L4.11094 45.3686H2.64934V49.0329H0.710693Z" fill="#343434"/>
<path d="M9.42944 49.0329V42.8822H11.226V44.8049H12.6571C14.2811 44.8049 15.1642 45.7411 15.1642 46.9189C15.1642 48.0967 14.2811 49.0329 12.6571 49.0329H9.42944ZM11.2158 47.7544H12.2207C12.9312 47.7544 13.3169 47.4423 13.3169 46.9189C13.3169 46.3954 12.9312 46.0834 12.2207 46.0834H11.2158V47.7544ZM16.1792 49.0329V42.8822H17.9757V49.0329H16.1792Z" fill="#343434"/>
<path d="M23.335 42.7009C25.2939 42.7009 26.3597 44.2814 26.3597 45.9525C26.3597 47.6235 25.3041 49.204 23.335 49.204C22.3504 49.204 21.6907 48.8114 21.2948 48.3684V51.8414H19.4983V42.8721H21.0918V43.768C21.4775 43.2345 22.188 42.7009 23.335 42.7009ZM22.8985 44.2009C22.1068 44.2009 21.5283 44.6841 21.2847 45.2277V46.6873C21.5283 47.2208 22.1068 47.7141 22.8985 47.7141C23.9237 47.7141 24.5225 46.9188 24.5225 45.9625C24.5225 44.9961 23.9135 44.2009 22.8985 44.2009Z" fill="#343434"/>
<path d="M27.5271 49.0329V42.8822H32.257V44.3821H29.3236V49.0329H27.5271Z" fill="#343434"/>
<path d="M33.2109 49.0329V42.8822H35.0075V44.8049H36.4386C38.0626 44.8049 38.9457 45.7411 38.9457 46.9189C38.9457 48.0967 38.0626 49.0329 36.4386 49.0329H33.2109ZM34.9973 47.7544H36.0022C36.7127 47.7544 37.0984 47.4423 37.0984 46.9189C37.0984 46.3954 36.7127 46.0834 36.0022 46.0834H34.9973V47.7544ZM39.9607 49.0329V42.8822H41.7572V49.0329H39.9607Z" fill="#343434"/>
<path d="M45.32 49.204C44.3558 49.204 43.5235 49.0027 42.9551 48.7007V47.2813C43.422 47.533 44.3253 47.8048 45.0866 47.8048C45.929 47.8048 46.538 47.6336 46.538 47.1102C46.538 46.5766 45.9595 46.5062 45.3505 46.5062H44.2035V45.3283H45.3505C45.9696 45.3283 46.4061 45.1773 46.4061 44.7545C46.4061 44.3418 45.9899 44.1002 45.1881 44.1002C44.4674 44.1002 43.5641 44.3519 43.0667 44.6136V43.2043C43.6453 42.8922 44.5385 42.6909 45.4012 42.6909C47.5429 42.6909 48.2331 43.6271 48.2331 44.523C48.2331 45.2579 47.7662 45.7109 47.1876 45.872C47.9083 46.0934 48.365 46.6068 48.365 47.3316C48.365 48.288 47.4515 49.204 45.32 49.204Z" fill="#343434"/>
<path d="M59.3169 40.0635V41.7949H56.5358V49.0329H54.6073V41.7949H51.8262V40.0635H59.3169Z" fill="#343434"/>
<path d="M64.94 47.8551C65.0415 47.8551 65.1632 47.845 65.2749 47.8047V48.9725C64.9907 49.0731 64.6253 49.1537 64.2802 49.1537C63.6509 49.1537 63.1739 48.9221 62.91 48.4591C62.301 48.9322 61.5905 49.2141 60.677 49.2141C59.5097 49.2141 58.5049 48.5497 58.5049 47.3316C58.5049 45.7713 59.9868 45.278 61.2352 45.278C61.7224 45.278 62.2705 45.3384 62.707 45.4491V45.2277C62.707 44.6136 62.2198 44.1908 61.2454 44.1908C60.3928 44.1908 59.6315 44.4223 59.053 44.6539V43.1137C59.5605 42.9425 60.5044 42.7009 61.4585 42.7009C63.316 42.7009 64.5035 43.4559 64.5035 45.4793V47.4423C64.5035 47.7645 64.7065 47.8551 64.94 47.8551ZM60.342 47.1907C60.342 47.6537 60.7683 47.9457 61.3063 47.9457C61.8138 47.9457 62.2908 47.8047 62.6968 47.4423V46.486C62.4228 46.4256 62.0168 46.3451 61.6412 46.3451C60.9916 46.3451 60.342 46.5565 60.342 47.1907Z" fill="#343434"/>
<path d="M66.229 49.0329V42.8822H68.0255V47.533H69.8323V42.8822H71.6187V47.533H73.4355V42.8822H75.2219V49.0329H66.229Z" fill="#343434"/>
<path d="M79.8198 49.0329V40.0635H86.1331V41.7949H81.7585V49.0329H79.8198Z" fill="#343434"/>
<path d="M89.574 42.7009C91.533 42.7009 92.5987 44.2814 92.5987 45.9525C92.5987 47.6235 91.5431 49.204 89.574 49.204C88.5895 49.204 87.9297 48.8114 87.5339 48.3684V51.8414H85.7373V42.8721H87.3309V43.768C87.7166 43.2345 88.4271 42.7009 89.574 42.7009ZM89.1376 44.2009C88.3459 44.2009 87.7673 44.6841 87.5237 45.2277V46.6873C87.7673 47.2208 88.3459 47.7141 89.1376 47.7141C90.1627 47.7141 90.7616 46.9188 90.7616 45.9625C90.7616 44.9961 90.1526 44.2009 89.1376 44.2009Z" fill="#343434"/>
<path d="M98.0186 42.8822H99.8761L97.1255 49.7778C96.4251 51.4992 95.4608 52.0227 94.456 52.0227C94.1312 52.0227 93.8064 51.9623 93.4917 51.8817V50.412C93.7353 50.4623 93.979 50.5026 94.2327 50.5026C94.8823 50.5026 95.3695 50.0697 95.7045 49.1537L95.7146 49.1235L92.7812 42.8822H94.6793L96.486 47.0296L98.0186 42.8822Z" fill="#343434"/>
<path d="M100.769 49.0329V42.8822H106.869V49.0329H105.073V44.3821H102.566V49.0329H100.769Z" fill="#343434"/>
<path d="M108.392 49.0329V42.8822H114.492V49.0329H112.696V44.3821H110.189V49.0329H108.392Z" fill="#343434"/>
<path d="M21.0615 65.9961V64.9693H21.4269C21.8532 64.2143 21.9852 63.0667 21.9852 62.0499H23.9035V64.9693H24.2994V65.9961H24.0355V65.2209H21.3153V65.9961H21.0615ZM21.7314 64.9693H23.6396V62.3117H22.2694C22.2288 63.2378 22.0968 64.2847 21.7314 64.9693Z" fill="#6C717C"/>
<path d="M26.2889 61.9987C27.4054 61.9987 27.9535 62.8343 27.9535 63.6396C27.9535 64.4449 27.4054 65.2804 26.2889 65.2804C25.1724 65.2804 24.6243 64.4449 24.6243 63.6396C24.6243 62.8343 25.1724 61.9987 26.2889 61.9987ZM26.2889 62.2504C25.3551 62.2504 24.8983 62.945 24.8983 63.6396C24.8983 64.3342 25.3551 65.0288 26.2889 65.0288C27.2227 65.0288 27.6794 64.3342 27.6794 63.6396C27.6794 62.945 27.2328 62.2504 26.2889 62.2504Z" fill="#6C717C"/>
<path d="M29.7702 63.3779C30.3995 63.3779 31.0288 63.5289 31.0288 64.304C31.0288 65.0791 30.3894 65.2301 29.7702 65.2301H28.6233V62.0491H30.7954V62.3108H28.8973V63.3779H29.7702ZM29.7804 64.9684C30.2879 64.9684 30.7548 64.8879 30.7548 64.304C30.7548 63.7201 30.2777 63.6396 29.7804 63.6396H28.8973V64.9785H29.7804V64.9684Z" fill="#6C717C"/>
<path d="M31.6479 65.2301V62.0491H31.922V63.2067H32.7035C33.4343 63.2067 34.0535 63.4282 34.0535 64.2134C34.0535 64.9986 33.4343 65.2201 32.7035 65.2201H31.6479V65.2301ZM31.922 64.9684H32.7137C33.2922 64.9684 33.7794 64.8174 33.7794 64.2235C33.7794 63.6295 33.2922 63.4785 32.7137 63.4785H31.922V64.9684ZM34.4696 65.2301V62.0491H34.7437V65.2301H34.4696Z" fill="#6C717C"/>
<path d="M37.5757 65.2301V63.9416C37.2407 64.0624 36.9058 64.1127 36.5911 64.1127C35.8502 64.1027 35.4036 63.7503 35.4036 63.0356V62.0491H35.6776V63.0457C35.6776 63.6094 36.0633 63.8409 36.652 63.851C36.9565 63.851 37.261 63.8007 37.5757 63.6799V62.0491H37.8497V65.2301H37.5757Z" fill="#6C717C"/>
<path d="M38.3469 65.2301L39.7781 62.0491H40.0826L41.5036 65.2301H41.2092L40.8337 64.3745H39.027L38.6413 65.2301H38.3469ZM39.1285 64.1228H40.722L39.9709 62.4316C39.9608 62.3913 39.9405 62.3611 39.9303 62.3309C39.9202 62.3611 39.8999 62.3913 39.8897 62.4316L39.1285 64.1228Z" fill="#6C717C"/>
<path d="M43.1785 65.2301V62.0491H45.2694V62.3108H43.4525V65.2301H43.1785Z" fill="#6C717C"/>
<path d="M46.8222 62.0491C47.553 62.0491 48.1721 62.2806 48.1721 63.0557C48.1721 63.8409 47.553 64.0725 46.8222 64.0725H46.0406V65.2301H45.7666V62.0491H46.8222ZM46.8425 62.3108H46.0508V63.8107H46.8425C47.4211 63.8107 47.9083 63.6597 47.9083 63.0557C47.9083 62.4517 47.4211 62.3108 46.8425 62.3108Z" fill="#6C717C"/>
<path d="M48.1621 65.2301L49.5933 62.0491H49.8978L51.3188 65.2301H51.0244L50.6489 64.3745H48.8422L48.4565 65.2301H48.1621ZM48.9437 64.1228H50.5372L49.7861 62.4316C49.776 62.3913 49.7557 62.3611 49.7455 62.3309C49.7354 62.3611 49.7151 62.3913 49.7049 62.4316L48.9437 64.1228Z" fill="#6C717C"/>
<path d="M54.4346 62.0491V65.2301H54.1606V63.7604H52.0798V65.2301H51.8159V62.0491H52.09V63.4987H54.1707V62.0491H54.4346Z" fill="#6C717C"/>
<path d="M57.6725 65.2301V62.7839C57.6725 62.6933 57.6725 62.6027 57.6725 62.5121L55.5715 65.2402H55.3279V62.0591H55.6019V64.5053C55.6019 64.5959 55.6019 64.6865 55.6019 64.7771L57.703 62.0591H57.9466V65.2402H57.6725V65.2301Z" fill="#6C717C"/>
<path d="M61.0626 62.0491V62.3108H59.8954V65.2301H59.6214V62.3108H58.4541V62.0491H61.0626Z" fill="#6C717C"/>
<path d="M60.8394 65.2301L62.2705 62.0491H62.575L63.996 65.2301H63.7017L63.3261 64.3745H61.5194L61.1337 65.2301H60.8394ZM61.6209 64.1228H63.2145L62.4634 62.4316C62.4532 62.3913 62.4329 62.3611 62.4228 62.3309C62.4126 62.3611 62.3923 62.3913 62.3822 62.4316L61.6209 64.1228Z" fill="#6C717C"/>
<path d="M68.0153 65.2301V62.7839C68.0153 62.6933 68.0153 62.6027 68.0153 62.5121L65.9143 65.2402H65.6707V62.0591H65.9447V64.5053C65.9447 64.5959 65.9447 64.6865 65.9447 64.7771L68.0458 62.0591H68.2894V65.2402H68.0153V65.2301Z" fill="#6C717C"/>
<path d="M73.5877 62.0491V65.2301H73.3137V62.5725L72.0551 64.4248H71.8825L70.6239 62.5725V65.2301H70.3499V62.0491H70.5833L71.9739 64.0825L73.3644 62.0491H73.5877Z" fill="#6C717C"/>
<path d="M75.5265 62.0491C76.2573 62.0491 76.8765 62.2806 76.8765 63.0557C76.8765 63.8409 76.2573 64.0725 75.5265 64.0725H74.745V65.2301H74.4709V62.0491H75.5265ZM75.5468 62.3108H74.7552V63.8107H75.5468C76.1254 63.8107 76.6126 63.6597 76.6126 63.0557C76.6126 62.4517 76.1254 62.3108 75.5468 62.3108Z" fill="#6C717C"/>
<path d="M76.8662 65.2301L78.2974 62.0491H78.6019L80.0229 65.2301H79.7285L79.353 64.3745H77.5463L77.1606 65.2301H76.8662ZM77.6478 64.1228H79.2413L78.4902 62.4316C78.4801 62.3913 78.4598 62.3611 78.4496 62.3309C78.4395 62.3611 78.4192 62.3913 78.409 62.4316L77.6478 64.1228Z" fill="#6C717C"/>
<path d="M83.7581 62.0491V65.2301H83.4841V62.5725L82.2255 64.4248H82.0529L80.7943 62.5725V65.2301H80.5203V62.0491H80.7537L82.1443 64.0825L83.5348 62.0491H83.7581Z" fill="#6C717C"/>
<path d="M86.0925 61.9987C87.209 61.9987 87.7571 62.8343 87.7571 63.6396C87.7571 64.4449 87.209 65.2804 86.0925 65.2804C84.976 65.2804 84.4279 64.4449 84.4279 63.6396C84.4177 62.8343 84.976 61.9987 86.0925 61.9987ZM86.0925 62.2504C85.1587 62.2504 84.7019 62.945 84.7019 63.6396C84.7019 64.3342 85.1587 65.0288 86.0925 65.0288C87.0263 65.0288 87.483 64.3342 87.483 63.6396C87.483 62.945 87.0263 62.2504 86.0925 62.2504Z" fill="#6C717C"/>
<path d="M89.4726 62.0491C90.2034 62.0491 90.8226 62.2806 90.8226 63.0557C90.8226 63.8409 90.2034 64.0725 89.4726 64.0725H88.6911V65.2301H88.417V62.0491H89.4726ZM89.4827 62.3108H88.6911V63.8107H89.4827C90.0613 63.8107 90.5485 63.6597 90.5485 63.0557C90.5485 62.4517 90.0613 62.3108 89.4827 62.3108Z" fill="#6C717C"/>
<path d="M90.8022 65.2301L92.2334 62.0491H92.5379L93.9589 65.2301H93.6646L93.289 64.3745H91.4823L91.0966 65.2301H90.8022ZM91.594 64.1228H93.1875L92.4364 62.4316C92.4263 62.3913 92.406 62.3611 92.3958 62.3309C92.3857 62.3611 92.3654 62.3913 92.3552 62.4316L91.594 64.1228Z" fill="#6C717C"/>
<path d="M70.2382 10.6185L60.2405 0.71286H44.7617V5.82673L49.9179 10.9406V17.0209L59.9157 26.9365H65.082V15.9035H70.2382V10.6185Z" fill="#343434"/>
<path d="M49.918 10.9406V5.82672H65.0821V10.9406H59.9157V29.2317H55.0843V10.9406H49.918Z" fill="white"/>
</svg>
