<svg width="19" height="19" viewBox="0 0 19 19" fill="none" xmlns="http://www.w3.org/2000/svg">
<path d="M15.3836 13.1785C15.3082 13.1785 15.2328 13.1509 15.174 13.0952L11.6487 9.78801C11.5256 9.67283 11.5195 9.47862 11.6353 9.35547C11.7511 9.2311 11.944 9.22559 12.0684 9.34199L15.5937 12.6492C15.7168 12.7643 15.723 12.9586 15.6072 13.0817C15.5465 13.146 15.4656 13.1785 15.3836 13.1785Z" fill="white"/>
<path d="M3.61596 13.179C3.53448 13.179 3.45299 13.1466 3.39234 13.0822C3.27655 12.9591 3.28267 12.7649 3.40582 12.6497L6.93232 9.34252C7.05608 9.22734 7.2503 9.23224 7.36548 9.356C7.48127 9.47914 7.47515 9.67336 7.352 9.78854L3.82549 13.0957C3.76668 13.1515 3.69132 13.179 3.61596 13.179Z" fill="white"/>
<path d="M17.4683 16.5074H1.53167C0.687411 16.5074 0 15.8206 0 14.9758V4.53167C0 3.6868 0.687411 3 1.53167 3H17.4683C18.3126 3 19 3.6868 19 4.53167V14.9758C19 15.8206 18.3126 16.5074 17.4683 16.5074ZM1.53167 3.61267C1.02499 3.61267 0.612666 4.02499 0.612666 4.53167V14.9758C0.612666 15.4825 1.02499 15.8948 1.53167 15.8948H17.4683C17.975 15.8948 18.3873 15.4825 18.3873 14.9758V4.53167C18.3873 4.02499 17.975 3.61267 17.4683 3.61267H1.53167Z" fill="white"/>
<path d="M9.49993 11.039C9.09251 11.039 8.68509 10.9036 8.37508 10.6334L0.508447 3.77096C0.381012 3.66006 0.367533 3.46646 0.478426 3.33841C0.590544 3.21098 0.783534 3.19934 0.910968 3.30901L8.7776 10.1709C9.1691 10.5121 9.83078 10.5121 10.2217 10.1709L18.0785 3.32003C18.2053 3.20914 18.3983 3.22139 18.511 3.34944C18.6219 3.47749 18.6091 3.67048 18.4816 3.78198L10.6248 10.6328C10.3142 10.9036 9.90736 11.039 9.49993 11.039Z" fill="white"/>
</svg>
