<svg width="19" height="19" viewBox="0 0 19 19" fill="none" xmlns="http://www.w3.org/2000/svg">
<g clip-path="url(#clip0)">
<path d="M18.9877 15.6377C18.9273 15.1811 18.6637 14.7875 18.2646 14.5577L13.5773 11.8589C13.0032 11.5284 12.2749 11.6246 11.8063 12.0931L10.883 13.0164C10.6373 13.2621 10.2486 13.2839 9.97908 13.0669C9.25122 12.4813 8.53457 11.8367 7.84907 11.1512C7.16356 10.4657 6.51901 9.74905 5.93331 9.02115C5.71635 8.75155 5.73806 8.3629 5.98382 8.11717L6.90705 7.19391C7.37559 6.7254 7.47195 5.99718 7.14132 5.42296L4.44251 0.735592C4.21271 0.336477 3.81909 0.0729438 3.36253 0.0125389C2.90592 -0.047989 2.45728 0.104295 2.13161 0.429956L0.740455 1.82116C-0.230496 2.79215 -0.246089 4.56826 0.696547 6.82241C1.60295 8.98984 3.29445 11.3758 5.45938 13.5408C7.6244 15.7058 10.0104 17.3973 12.1779 18.3037C13.2874 18.7677 14.2811 18.9996 15.12 18.9995C15.9854 18.9995 16.6861 18.7528 17.1791 18.2598L18.5703 16.8686C18.8959 16.5429 19.0481 16.0943 18.9877 15.6377ZM13.2702 12.3923L17.9575 15.0911C18.1893 15.2246 18.3424 15.4532 18.3775 15.7184C18.4069 15.941 18.3491 16.1601 18.218 16.3367L11.9886 12.7814L12.2416 12.5284C12.5137 12.2563 12.9367 12.2004 13.2702 12.3923ZM3.28177 0.622784C3.54698 0.65787 3.7756 0.810934 3.90904 1.04275L6.60785 5.73011C6.7999 6.06361 6.74393 6.48661 6.47182 6.75868L6.23943 6.99107L2.66463 0.782209C2.81076 0.673997 2.98553 0.615233 3.16773 0.615233C3.20552 0.615233 3.24365 0.617737 3.28177 0.622784ZM16.7438 17.8245C15.9724 18.5959 14.3947 18.5636 12.4153 17.7358C10.32 16.8596 8.00435 15.2152 5.89469 13.1056C3.78503 10.9959 2.14064 8.68019 1.26444 6.58493C0.436625 4.60548 0.40433 3.02782 1.17572 2.25638L2.20847 1.22359L5.78865 7.44184L5.54855 7.68195C5.08013 8.15041 5.03934 8.89201 5.45372 9.4071C6.05321 10.1521 6.7127 10.8854 7.41376 11.5864C8.1149 12.2875 8.84813 12.947 9.59313 13.5465C10.1081 13.9609 10.8497 13.9201 11.3183 13.4516L11.5373 13.2326L17.7755 16.7928L16.7438 17.8245Z" fill="white"/>
</g>
<defs>
<clipPath id="clip0">
<rect width="19" height="19" fill="white"/>
</clipPath>
</defs>
</svg>
