<svg width="19" height="15" viewBox="0 0 19 15" fill="none" xmlns="http://www.w3.org/2000/svg">
<path d="M18.8432 0.50208C18.6571 0.274921 18.3485 0.190681 18.074 0.291769L0.645396 6.6024C0.297206 6.72919 0.0528057 7.03667 0.00743367 7.40486C-0.0375035 7.77131 0.12369 8.12686 0.426074 8.3315L2.91733 10.0355C3.15869 10.2006 3.46904 10.2183 3.7275 10.0817L9.13156 7.22636L4.91979 10.3774C4.72206 10.5254 4.60392 10.7614 4.60392 11.0086V13.9274C4.60392 14.2285 4.76874 14.5043 5.03402 14.6475C5.29972 14.7907 5.62066 14.7765 5.87303 14.6097L7.76576 13.3518L9.62703 14.6234C9.7901 14.7354 9.98435 14.7943 10.1803 14.7943C10.2466 14.7943 10.3131 14.7875 10.3786 14.7739C10.64 14.7193 10.8712 14.5575 11.0131 14.33L18.8984 1.30207C19.0519 1.05124 19.0299 0.730256 18.8432 0.50208ZM10.1387 13.6222L8.21122 12.3053C8.07713 12.2135 7.9226 12.1676 7.76822 12.1676C7.61718 12.1676 7.46598 12.2116 7.33364 12.2997L5.71778 13.3736V11.1733L13.1549 5.60923C13.487 5.36072 13.5706 4.90844 13.3493 4.55724C13.1278 4.20605 12.6843 4.08738 12.3177 4.28114L3.3825 9.00223L1.27539 7.56099L17.3248 1.74986L10.1387 13.6222Z" fill="white"/>
</svg>
