<svg width="18" height="19" viewBox="0 0 18 19" fill="none" xmlns="http://www.w3.org/2000/svg">
<g clip-path="url(#clip0)">
<path d="M15.4433 2.69869C13.7946 0.958321 11.6029 0 9.27109 0C9.27095 0 9.2704 0 9.27026 0C8.11697 0.000144958 6.99307 0.235848 5.93001 0.700729C4.86681 1.16561 3.91429 1.83778 3.0987 2.69869C1.45006 4.43892 0.542177 6.75275 0.542177 9.21385C0.542177 10.6816 0.877672 12.1401 1.51337 13.4397L0.0461446 17.8641C-0.0572642 18.1762 0.0159322 18.5154 0.237581 18.7492C0.392626 18.913 0.596697 19 0.806536 19C0.896486 19 0.987398 18.9841 1.07611 18.9513L5.26767 17.4027C6.49883 18.0737 7.88063 18.4278 9.27109 18.4278C11.6027 18.4278 13.7946 17.4694 15.4433 15.7292C17.092 13.9889 18 11.6751 18 9.214C18 6.75275 17.0921 4.43892 15.4433 2.69869ZM14.6968 14.9412C13.2476 16.4711 11.3206 17.3134 9.27109 17.3134C8.01727 17.3134 6.7717 16.9861 5.66895 16.3665C5.469 16.2543 5.23265 16.2351 5.02048 16.3135L1.21234 17.7203L2.54526 13.7006C2.61955 13.4764 2.60115 13.2269 2.49486 13.016C1.90805 11.8522 1.59783 10.5375 1.59783 9.21385C1.59783 7.05049 2.39598 5.01643 3.84522 3.48669C5.29431 1.95708 7.22104 1.11459 9.2704 1.1143H9.27109C11.3207 1.1143 13.2476 1.95679 14.6968 3.48669C16.1462 5.01643 16.9444 7.05035 16.9444 9.21385C16.9444 11.3774 16.1462 13.4114 14.6968 14.9412Z" fill="white"/>
<path d="M12.5151 10.0368C12.1135 9.61298 11.4601 9.61298 11.0586 10.0368L10.6194 10.5004C9.52884 9.87318 8.64637 8.94168 8.05201 7.79057L8.49118 7.32699C8.89287 6.90313 8.89287 6.21342 8.49118 5.78956L7.30768 4.54031C6.90613 4.11645 6.25272 4.11645 5.85117 4.54031L4.90442 5.53965C4.36211 6.11209 4.33506 7.09621 4.82821 8.31082C5.2564 9.36539 6.04 10.5245 7.03467 11.5744C8.02935 12.6244 9.12743 13.4515 10.1265 13.9035C10.6732 14.1508 11.1705 14.2741 11.6002 14.2741C12.0749 14.2741 12.4671 14.1235 12.7518 13.823L13.6986 12.8235V12.8237C13.8932 12.6183 14.0003 12.3453 14.0003 12.055C14.0003 11.7645 13.8932 11.4915 13.6986 11.2862L12.5151 10.0368ZM12.0053 13.035C11.8505 13.1984 11.3745 13.2556 10.5425 12.8793C9.66384 12.4819 8.68317 11.7385 7.78119 10.7864C6.87922 9.83434 6.17513 8.79933 5.79857 7.87189C5.44193 6.99358 5.49617 6.49101 5.65094 6.32764L6.57956 5.34743L7.72654 6.55827L7.17681 7.13869C6.92824 7.40106 6.86823 7.79897 7.02767 8.1289C7.75043 9.62487 8.88161 10.8189 10.2988 11.5818C10.6115 11.7501 10.9885 11.6869 11.2371 11.4244L11.7868 10.8441L12.9339 12.055L12.0053 13.035Z" fill="white"/>
</g>
<defs>
<clipPath id="clip0">
<rect width="18" height="19" fill="white"/>
</clipPath>
</defs>
</svg>
